<svg xmlns="http://www.w3.org/2000/svg" width="1040" height="408" viewBox="0 0 1040 408" role="img" aria-labelledby="seq-11-title seq-11-desc"><title id="seq-11-title">SEQ-11</title><desc id="seq-11-desc">O relógio de etapa mede espera do processo; o relógio transitório mede conclusão de ação. Ambos são virtuais e produzem motivos distintos.</desc><defs><marker id="arrow" markerWidth="8" markerHeight="6" refX="7" refY="3" orient="auto"><polygon points="0,0 8,3 0,6" fill="#536679"/></marker><marker id="arrow-accent" markerWidth="8" markerHeight="6" refX="7" refY="3" orient="auto"><polygon points="0,0 8,3 0,6" fill="#24577A"/></marker><marker id="arrow-link" markerWidth="8" markerHeight="6" refX="7" refY="3" orient="auto"><polygon points="0,0 8,3 0,6" fill="#24577A"/></marker></defs><rect width="1040" height="408" fill="#ffffff"/><path d="M 280,84.0 L 400,84.0" fill="none" stroke="#536679" stroke-width="2"/><polygon points="400,84.0 390.0,79.0 390.0,89.0" fill="#536679"/><path d="M 640,84.0 L 760,84.0" fill="none" stroke="#536679" stroke-width="2"/><polygon points="760,84.0 750.0,79.0 750.0,89.0" fill="#536679"/><path d="M 280,308.0 L 400,308.0" fill="none" stroke="#536679" stroke-width="2"/><polygon points="400,308.0 390.0,303.0 390.0,313.0" fill="#536679"/><path d="M 640,308.0 L 760,308.0" fill="none" stroke="#536679" stroke-width="2"/><polygon points="760,308.0 750.0,303.0 750.0,313.0" fill="#536679"/><rect x="40" y="40" width="240" height="88" rx="4" fill="#F4F6F8" stroke="#CBD4DC" stroke-width="2"/><text x="160.0" y="79.0" text-anchor="middle" font-family="DejaVuSans" font-size="20" fill="#202A34">Variante A / etapa 10</text><text x="160.0" y="103.0" text-anchor="middle" font-family="DejaVuSans" font-size="20" fill="#202A34">xQualified = FALSE</text><rect x="400" y="40" width="240" height="88" rx="4" fill="#ffffff" stroke="#536679" stroke-width="2"/><text x="520.0" y="79.0" text-anchor="middle" font-family="DejaVuSans" font-size="20" fill="#202A34">Running</text><text x="520.0" y="103.0" text-anchor="middle" font-family="DejaVuSans" font-size="20" fill="#202A34">10000 ms aplicados</text><rect x="760" y="40" width="240" height="88" rx="8" fill="#ffffff" stroke="#536679" stroke-width="2"/><text x="880.0" y="79.0" text-anchor="middle" font-family="DejaVuSans" font-size="20" fill="#202A34">Faulted</text><text x="880.0" y="103.0" text-anchor="middle" font-family="DejaVuSans" font-size="20" fill="#202A34">StepTimeout (12)</text><rect x="40" y="264" width="240" height="88" rx="4" fill="#F4F6F8" stroke="#CBD4DC" stroke-width="2"/><text x="160.0" y="291.0" text-anchor="middle" font-family="DejaVuSans" font-size="20" fill="#202A34">Variante B / Hold</text><text x="160.0" y="315.0" text-anchor="middle" font-family="DejaVuSans" font-size="20" fill="#202A34">xFinishActions =</text><text x="160.0" y="339.0" text-anchor="middle" font-family="DejaVuSans" font-size="20" fill="#202A34">FALSE</text><rect x="400" y="264" width="240" height="88" rx="4" fill="#ffffff" stroke="#536679" stroke-width="2"/><text x="520.0" y="303.0" text-anchor="middle" font-family="DejaVuSans" font-size="20" fill="#202A34">Holding / aceito</text><text x="520.0" y="327.0" text-anchor="middle" font-family="DejaVuSans" font-size="20" fill="#202A34">sem Done / 5000 ms</text><rect x="760" y="264" width="240" height="88" rx="8" fill="#ffffff" stroke="#536679" stroke-width="2"/><text x="880.0" y="291.0" text-anchor="middle" font-family="DejaVuSans" font-size="20" fill="#202A34">Faulted</text><text x="880.0" y="315.0" text-anchor="middle" font-family="DejaVuSans" font-size="20" fill="#202A34">TransitionTimeout</text><text x="880.0" y="339.0" text-anchor="middle" font-family="DejaVuSans" font-size="20" fill="#202A34">(13)</text><rect x="659.11328125" y="34.0" width="81.7734375" height="40" fill="#ffffff"/><text x="700.0" y="49.0" text-anchor="middle" font-family="DejaVuSans" font-size="16" fill="#536679">prazo da</text><text x="700.0" y="69.0" text-anchor="middle" font-family="DejaVuSans" font-size="16" fill="#536679">receita</text><rect x="652.7734375" y="258.0" width="94.453125" height="40" fill="#ffffff"/><text x="700.0" y="273.0" text-anchor="middle" font-family="DejaVuSans" font-size="16" fill="#536679">prazo</text><text x="700.0" y="293.0" text-anchor="middle" font-family="DejaVuSans" font-size="16" fill="#536679">transitório</text></svg>