<svg xmlns="http://www.w3.org/2000/svg" width="1040" height="408" viewBox="0 0 1040 408" role="img" aria-labelledby="seq-02-title seq-02-desc"><title id="seq-02-title">SEQ-02</title><desc id="seq-02-desc">LoadRecipe valida e copia a candidata. Editar a candidata durante o lote preserva o perfil já aplicado.</desc><defs><marker id="arrow" markerWidth="8" markerHeight="6" refX="7" refY="3" orient="auto"><polygon points="0,0 8,3 0,6" fill="#536679"/></marker><marker id="arrow-accent" markerWidth="8" markerHeight="6" refX="7" refY="3" orient="auto"><polygon points="0,0 8,3 0,6" fill="#24577A"/></marker><marker id="arrow-link" markerWidth="8" markerHeight="6" refX="7" refY="3" orient="auto"><polygon points="0,0 8,3 0,6" fill="#24577A"/></marker></defs><rect width="1040" height="408" fill="#ffffff"/><path d="M 280,84.0 L 400,84.0" fill="none" stroke="#536679" stroke-width="2"/><polygon points="400,84.0 390.0,79.0 390.0,89.0" fill="#536679"/><path d="M 640,84.0 L 760,84.0" fill="none" stroke="#536679" stroke-width="2" stroke-dasharray="6,5"/><polygon points="760,84.0 750.0,79.0 750.0,89.0" fill="#536679"/><path d="M 520.0,128 L 520.0,264" fill="none" stroke="#536679" stroke-width="2"/><polygon points="520.0,264 525.0,254.0 515.0,254.0" fill="#536679"/><path d="M 280,308.0 L 400,308.0" fill="none" stroke="#536679" stroke-width="2" stroke-dasharray="6,5"/><polygon points="400,308.0 390.0,303.0 390.0,313.0" fill="#536679"/><path d="M 640,308.0 L 760,308.0" fill="none" stroke="#536679" stroke-width="2"/><polygon points="760,308.0 750.0,303.0 750.0,313.0" fill="#536679"/><rect x="40" y="40" width="240" height="88" rx="4" fill="#F4F6F8" stroke="#CBD4DC" stroke-width="2"/><text x="160.0" y="67.0" text-anchor="middle" font-family="DejaVuSans" font-size="20" fill="#202A34">Candidata</text><text x="160.0" y="91.0" text-anchor="middle" font-family="DejaVuSans" font-size="20" fill="#202A34">QualifiedMs = 0</text><text x="160.0" y="115.0" text-anchor="middle" font-family="DejaVuSans" font-size="20" fill="#202A34">ou valor válido</text><rect x="400" y="40" width="240" height="88" rx="4" fill="#ffffff" stroke="#536679" stroke-width="2"/><text x="520.0" y="79.0" text-anchor="middle" font-family="DejaVuSans" font-size="20" fill="#202A34">LoadRecipe</text><text x="520.0" y="103.0" text-anchor="middle" font-family="DejaVuSans" font-size="20" fill="#202A34">valida estrutura</text><rect x="760" y="40" width="240" height="88" rx="8" fill="#ffffff" stroke="#536679" stroke-width="2"/><text x="880.0" y="79.0" text-anchor="middle" font-family="DejaVuSans" font-size="20" fill="#202A34">Rejected</text><text x="880.0" y="103.0" text-anchor="middle" font-family="DejaVuSans" font-size="20" fill="#202A34">RecipeInvalid</text><rect x="400" y="264" width="240" height="88" rx="4" fill="#EDF1F4" stroke="#536679" stroke-width="2"/><text x="520.0" y="291.0" text-anchor="middle" font-family="DejaVuSans" font-size="20" fill="#202A34">Snapshot aplicado</text><text x="520.0" y="315.0" text-anchor="middle" font-family="DejaVuSans" font-size="20" fill="#202A34">perfil da etapa 20</text><text x="520.0" y="339.0" text-anchor="middle" font-family="DejaVuSans" font-size="20" fill="#202A34">= 200</text><path d="M 408,276 H 632" stroke="#CBD4DC" stroke-width="1"/><rect x="40" y="264" width="240" height="88" rx="4" fill="#F4F6F8" stroke="#CBD4DC" stroke-width="2"/><text x="160.0" y="303.0" text-anchor="middle" font-family="DejaVuSans" font-size="20" fill="#202A34">Candidata depois</text><text x="160.0" y="327.0" text-anchor="middle" font-family="DejaVuSans" font-size="20" fill="#202A34">perfil = 999</text><rect x="760" y="264" width="240" height="88" rx="8" fill="#ffffff" stroke="#536679" stroke-width="2"/><text x="880.0" y="303.0" text-anchor="middle" font-family="DejaVuSans" font-size="20" fill="#202A34">Execute / etapa 20</text><text x="880.0" y="327.0" text-anchor="middle" font-family="DejaVuSans" font-size="20" fill="#202A34">perfil = 200</text><rect x="644.5859375" y="54.0" width="110.828125" height="20" fill="#ffffff"/><text x="700.0" y="69.0" text-anchor="middle" font-family="DejaVuSans" font-size="16" fill="#536679">duração = 0</text><rect x="532.0" y="178.0" width="124.890625" height="20" fill="#ffffff"/><text x="536.0" y="193.0" text-anchor="start" font-family="DejaVuSans" font-size="16" fill="#536679">válida em Idle</text><rect x="293.21484375" y="258.0" width="93.5703125" height="40" fill="#ffffff"/><text x="340.0" y="273.0" text-anchor="middle" font-family="DejaVuSans" font-size="16" fill="#536679">não altera</text><text x="340.0" y="293.0" text-anchor="middle" font-family="DejaVuSans" font-size="16" fill="#536679">no lote</text><rect x="648.71484375" y="258.0" width="102.5703125" height="40" fill="#ffffff"/><text x="700.0" y="273.0" text-anchor="middle" font-family="DejaVuSans" font-size="16" fill="#536679">cópia</text><text x="700.0" y="293.0" text-anchor="middle" font-family="DejaVuSans" font-size="16" fill="#536679">preservada</text></svg>