<svg xmlns="http://www.w3.org/2000/svg" width="1040" height="480" viewBox="0 0 1040 480" role="img" aria-labelledby="seq-026-title seq-026-desc"><title id="seq-026-title">SEQ-026</title><desc id="seq-026-desc">Reset operacional não equivale à recriação da instância.</desc><defs><marker id="arrow" markerWidth="8" markerHeight="6" refX="7" refY="3" orient="auto"><polygon points="0,0 8,3 0,6" fill="#536679"/></marker><marker id="arrow-accent" markerWidth="8" markerHeight="6" refX="7" refY="3" orient="auto"><polygon points="0,0 8,3 0,6" fill="#24577A"/></marker><marker id="arrow-link" markerWidth="8" markerHeight="6" refX="7" refY="3" orient="auto"><polygon points="0,0 8,3 0,6" fill="#24577A"/></marker></defs><rect width="1040" height="480" fill="#ffffff"/><path d="M 410,100.0 L 424.0,100.0 Q 430,100.0 430.0,106.0 L 430.0,106.0 Q 430,112.0 436.0,112.0 L 630,112.0" fill="none" stroke="#536679" stroke-width="2"/><polygon points="630,112.0 620.0,107.0 620.0,117.0" fill="#536679"/><path d="M 235.0,160 L 235.0,328" fill="none" stroke="#536679" stroke-width="2"/><polygon points="235.0,328 240.0,318.0 230.0,318.0" fill="#536679"/><path d="M 410,124.0 L 422.0,124.0 Q 430,124.0 430.0,132.0 L 430.0,368.0 Q 430,376.0 438.0,376.0 L 630,376.0" fill="none" stroke="#536679" stroke-width="2"/><polygon points="630,376.0 620.0,371.0 620.0,381.0" fill="#536679"/><rect x="60" y="64" width="350" height="96" rx="4" fill="#F4F6F8" stroke="#CBD4DC" stroke-width="2"/><text x="235.0" y="119.0" text-anchor="middle" font-family="DejaVuSans" font-size="20" fill="#202A34">Reset admitido</text><rect x="630" y="64" width="350" height="96" rx="4" fill="#ffffff" stroke="#536679" stroke-width="2"/><text x="805.0" y="107.0" text-anchor="middle" font-family="DejaVuSans" font-size="20" fill="#202A34">Estado e lote</text><text x="805.0" y="131.0" text-anchor="middle" font-family="DejaVuSans" font-size="20" fill="#202A34">correntes limpos</text><rect x="60" y="328" width="350" height="96" rx="4" fill="#ffffff" stroke="#536679" stroke-width="2"/><text x="235.0" y="371.0" text-anchor="middle" font-family="DejaVuSans" font-size="20" fill="#202A34">Receita e IDs</text><text x="235.0" y="395.0" text-anchor="middle" font-family="DejaVuSans" font-size="20" fill="#202A34">preservados</text><rect x="630" y="328" width="350" height="96" rx="8" fill="#E7EFF5" stroke="#24577A" stroke-width="2"/><text x="805.0" y="371.0" text-anchor="middle" font-family="DejaVuSans" font-size="20" fill="#202A34">Fila continua</text><text x="805.0" y="395.0" text-anchor="middle" font-family="DejaVuSans" font-size="20" fill="#202A34">aguardando ACK</text><rect x="464.05078125" y="82.0" width="131.8984375" height="20" fill="#ffffff"/><text x="530.0" y="97.0" text-anchor="middle" font-family="DejaVuSans" font-size="16" fill="#536679">limpa contexto</text><rect x="60.3775" y="234.0" width="162.625" height="20" fill="#ffffff"/><text x="141.69" y="249.0" text-anchor="middle" font-family="DejaVuSans" font-size="16" fill="#536679">preserva conteúdo</text><rect x="295.24109375" y="240.0" width="122.7578125" height="20" fill="#ffffff"/><text x="356.62" y="255.0" text-anchor="middle" font-family="DejaVuSans" font-size="16" fill="#536679">não drena fila</text></svg>