<svg xmlns="http://www.w3.org/2000/svg" width="1040" height="408" viewBox="0 0 1040 408" role="img" aria-labelledby="seq-03-title seq-03-desc"><title id="seq-03-title">SEQ-03</title><desc id="seq-03-desc">Start aceito cria a intenção Acquire. Só o retorno correlacionado com recurso concedido permite Running e Execute.</desc><defs><marker id="arrow" markerWidth="8" markerHeight="6" refX="7" refY="3" orient="auto"><polygon points="0,0 8,3 0,6" fill="#536679"/></marker><marker id="arrow-accent" markerWidth="8" markerHeight="6" refX="7" refY="3" orient="auto"><polygon points="0,0 8,3 0,6" fill="#24577A"/></marker><marker id="arrow-link" markerWidth="8" markerHeight="6" refX="7" refY="3" orient="auto"><polygon points="0,0 8,3 0,6" fill="#24577A"/></marker></defs><rect width="1040" height="408" fill="#ffffff"/><path d="M 280,84.0 L 400,84.0" fill="none" stroke="#536679" stroke-width="2"/><polygon points="400,84.0 390.0,79.0 390.0,89.0" fill="#536679"/><path d="M 640,84.0 L 760,84.0" fill="none" stroke="#536679" stroke-width="2"/><polygon points="760,84.0 750.0,79.0 750.0,89.0" fill="#536679"/><path d="M 880.0,128 L 880.0,264" fill="none" stroke="#536679" stroke-width="2"/><polygon points="880.0,264 885.0,254.0 875.0,254.0" fill="#536679"/><path d="M 760,308.0 L 640,308.0" fill="none" stroke="#536679" stroke-width="2"/><polygon points="640,308.0 650.0,313.0 650.0,303.0" fill="#536679"/><path d="M 400,308.0 L 280,308.0" fill="none" stroke="#536679" stroke-width="2"/><polygon points="280,308.0 290.0,313.0 290.0,303.0" fill="#536679"/><rect x="40" y="40" width="240" height="88" rx="4" fill="#F4F6F8" stroke="#CBD4DC" stroke-width="2"/><text x="160.0" y="79.0" text-anchor="middle" font-family="DejaVuSans" font-size="20" fill="#202A34">Start admitido</text><text x="160.0" y="103.0" text-anchor="middle" font-family="DejaVuSans" font-size="20" fill="#202A34">Accepted</text><rect x="400" y="40" width="240" height="88" rx="8" fill="#EDF1F4" stroke="#536679" stroke-width="2"/><text x="520.0" y="79.0" text-anchor="middle" font-family="DejaVuSans" font-size="20" fill="#202A34">Starting</text><text x="520.0" y="103.0" text-anchor="middle" font-family="DejaVuSans" font-size="20" fill="#202A34">eStateAfter = 10</text><rect x="760" y="40" width="240" height="88" rx="4" fill="#ffffff" stroke="#536679" stroke-width="2"/><text x="880.0" y="79.0" text-anchor="middle" font-family="DejaVuSans" font-size="20" fill="#202A34">Acquire</text><text x="880.0" y="103.0" text-anchor="middle" font-family="DejaVuSans" font-size="20" fill="#202A34">ControlMock</text><rect x="760" y="264" width="240" height="88" rx="8" fill="#E7EFF5" stroke="#24577A" stroke-width="2"/><text x="880.0" y="303.0" text-anchor="middle" font-family="DejaVuSans" font-size="20" fill="#202A34">Done + runtime</text><text x="880.0" y="327.0" text-anchor="middle" font-family="DejaVuSans" font-size="20" fill="#202A34">+ token coincidente</text><rect x="400" y="264" width="240" height="88" rx="8" fill="#EDF1F4" stroke="#536679" stroke-width="2"/><text x="520.0" y="303.0" text-anchor="middle" font-family="DejaVuSans" font-size="20" fill="#202A34">Running / Execute</text><text x="520.0" y="327.0" text-anchor="middle" font-family="DejaVuSans" font-size="20" fill="#202A34">etapa 10 / perfil 100</text><rect x="40" y="264" width="240" height="88" rx="8" fill="#ffffff" stroke="#536679" stroke-width="2"/><text x="160.0" y="303.0" text-anchor="middle" font-family="DejaVuSans" font-size="20" fill="#202A34">xQualified = FALSE</text><text x="160.0" y="327.0" text-anchor="middle" font-family="DejaVuSans" font-size="20" fill="#202A34">permanece etapa 10</text><rect x="892.0" y="178.0" width="125.953125" height="20" fill="#ffffff"/><text x="896.0" y="193.0" text-anchor="start" font-family="DejaVuSans" font-size="16" fill="#536679">scan posterior</text><rect x="651.88671875" y="258.0" width="96.2265625" height="40" fill="#ffffff"/><text x="700.0" y="273.0" text-anchor="middle" font-family="DejaVuSans" font-size="16" fill="#536679">correlação</text><text x="700.0" y="293.0" text-anchor="middle" font-family="DejaVuSans" font-size="16" fill="#536679">válida</text></svg>