<svg xmlns="http://www.w3.org/2000/svg" width="1040" height="480" viewBox="0 0 1040 480" role="img" aria-labelledby="seq-050-title seq-050-desc"><title id="seq-050-title">SEQ-050</title><desc id="seq-050-desc">IDs precisam ser únicos; a ordem numérica é livre e o primeiro defeito encerra a análise.</desc><defs><marker id="arrow" markerWidth="8" markerHeight="6" refX="7" refY="3" orient="auto"><polygon points="0,0 8,3 0,6" fill="#536679"/></marker><marker id="arrow-accent" markerWidth="8" markerHeight="6" refX="7" refY="3" orient="auto"><polygon points="0,0 8,3 0,6" fill="#24577A"/></marker><marker id="arrow-link" markerWidth="8" markerHeight="6" refX="7" refY="3" orient="auto"><polygon points="0,0 8,3 0,6" fill="#24577A"/></marker></defs><rect width="1040" height="480" fill="#ffffff"/><path d="M 284,112.0 L 296.0,112.0 Q 304,112.0 304.0,104.0 L 304.0,102.0 Q 304,94.0 312.0,94.0 L 388,94.0" fill="none" stroke="#536679" stroke-width="2"/><polygon points="388,94.0 378.0,89.0 378.0,99.0" fill="#536679"/><path d="M 514.0,160 L 514.0,169.0 Q 514.0,172 517.0,172.0 L 517.0,172.0 Q 520.0,172 520.0,175.0 L 520.0,328" fill="none" stroke="#536679" stroke-width="2"/><polygon points="520.0,328 525.0,318.0 515.0,318.0" fill="#536679"/><path d="M 526.0,160 L 526.0,172.0 Q 526.0,180 534.0,180.0 L 728.0,180.0 Q 736,180 736.0,188.0 L 736.0,368.0 Q 736,376.0 744.0,376.0 L 756,376.0" fill="none" stroke="#536679" stroke-width="2" stroke-dasharray="6,5"/><polygon points="756,376.0 746.0,371.0 746.0,381.0" fill="#536679"/><path d="M 756,112.0 L 684.0,112.0 Q 676,112.0 676.0,120.0 L 676.0,122.0 Q 676,130.0 668.0,130.0 L 652,130.0" fill="none" stroke="#536679" stroke-width="2" stroke-dasharray="6,5"/><polygon points="652,130.0 662.0,135.0 662.0,125.0" fill="#536679"/><rect x="20" y="64" width="264" height="96" rx="4" fill="#F4F6F8" stroke="#CBD4DC" stroke-width="2"/><text x="152.0" y="107.0" text-anchor="middle" font-family="DejaVuSans" font-size="20" fill="#202A34">IDs 10 / 30</text><text x="152.0" y="131.0" text-anchor="middle" font-family="DejaVuSans" font-size="20" fill="#202A34">20 / 40</text><rect x="388" y="64" width="264" height="96" rx="4" fill="#ffffff" stroke="#536679" stroke-width="2"/><text x="520.0" y="107.0" text-anchor="middle" font-family="DejaVuSans" font-size="20" fill="#202A34">Varredura</text><text x="520.0" y="131.0" text-anchor="middle" font-family="DejaVuSans" font-size="20" fill="#202A34">da receita</text><rect x="388" y="328" width="264" height="96" rx="8" fill="#ffffff" stroke="#536679" stroke-width="2"/><text x="520.0" y="371.0" text-anchor="middle" font-family="DejaVuSans" font-size="20" fill="#202A34">Distintos</text><text x="520.0" y="395.0" text-anchor="middle" font-family="DejaVuSans" font-size="20" fill="#202A34">aprovada</text><rect x="756" y="328" width="264" height="96" rx="8" fill="#ffffff" stroke="#536679" stroke-width="2"/><text x="888.0" y="371.0" text-anchor="middle" font-family="DejaVuSans" font-size="20" fill="#202A34">Repetição no 4</text><text x="888.0" y="395.0" text-anchor="middle" font-family="DejaVuSans" font-size="20" fill="#202A34">falha no índice 4</text><rect x="756" y="64" width="264" height="96" rx="8" fill="#EDF1F4" stroke="#536679" stroke-width="2"/><text x="888.0" y="107.0" text-anchor="middle" font-family="DejaVuSans" font-size="20" fill="#202A34">Defeito no 2</text><text x="888.0" y="131.0" text-anchor="middle" font-family="DejaVuSans" font-size="20" fill="#202A34">tem precedência</text><rect x="316.11328125" y="64.0" width="59.7734375" height="20" fill="#ffffff"/><text x="346.0" y="79.0" text-anchor="middle" font-family="DejaVuSans" font-size="16" fill="#536679">avalia</text><rect x="392.8240625" y="240.0" width="115.171875" height="20" fill="#ffffff"/><text x="450.41" y="255.0" text-anchor="middle" font-family="DejaVuSans" font-size="16" fill="#536679">sem defeitos</text><rect x="580.39453125" y="192.0" width="101.2109375" height="20" fill="#ffffff"/><text x="631.0" y="207.0" text-anchor="middle" font-family="DejaVuSans" font-size="16" fill="#536679">ID repetido</text><rect x="659.28515625" y="62.0" width="81.4296875" height="40" fill="#ffffff"/><text x="700.0" y="77.0" text-anchor="middle" font-family="DejaVuSans" font-size="16" fill="#536679">antes do</text><text x="700.0" y="97.0" text-anchor="middle" font-family="DejaVuSans" font-size="16" fill="#536679">índice 4</text></svg>