<svg xmlns="http://www.w3.org/2000/svg" width="1040" height="408" viewBox="0 0 1040 408" role="img" aria-labelledby="seq-14-title seq-14-desc"><title id="seq-14-title">SEQ-14</title><desc id="seq-14-desc">Só o par exato da cabeça confirma um evento. Sem consumo, a fila preserva antigos e torna a perda de novos fatos explícita ao saturar.</desc><defs><marker id="arrow" markerWidth="8" markerHeight="6" refX="7" refY="3" orient="auto"><polygon points="0,0 8,3 0,6" fill="#536679"/></marker><marker id="arrow-accent" markerWidth="8" markerHeight="6" refX="7" refY="3" orient="auto"><polygon points="0,0 8,3 0,6" fill="#24577A"/></marker><marker id="arrow-link" markerWidth="8" markerHeight="6" refX="7" refY="3" orient="auto"><polygon points="0,0 8,3 0,6" fill="#24577A"/></marker></defs><rect width="1040" height="408" fill="#ffffff"/><path d="M 280,84.0 L 400,84.0" fill="none" stroke="#536679" stroke-width="2"/><polygon points="400,84.0 390.0,79.0 390.0,89.0" fill="#536679"/><path d="M 640,84.0 L 760,84.0" fill="none" stroke="#536679" stroke-width="2" stroke-dasharray="6,5"/><polygon points="760,84.0 750.0,79.0 750.0,89.0" fill="#536679"/><path d="M 520,128 L 520.0,184.0 Q 520,192 512.0,192.0 L 168.0,192.0 Q 160,192 160.0,200.0 L 160,264" fill="none" stroke="#536679" stroke-width="2"/><polygon points="160,264 165.0,254.0 155.0,254.0" fill="#536679"/><path d="M 640,308.0 L 760,308.0" fill="none" stroke="#536679" stroke-width="2"/><polygon points="760,308.0 750.0,303.0 750.0,313.0" fill="#536679"/><path d="M 880.0,264 L 880.0,128" fill="none" stroke="#536679" stroke-width="2"/><polygon points="880.0,128 875.0,138.0 885.0,138.0" fill="#536679"/><rect x="40" y="40" width="240" height="88" rx="4" fill="#F4F6F8" stroke="#CBD4DC" stroke-width="2"/><text x="160.0" y="67.0" text-anchor="middle" font-family="DejaVuSans" font-size="20" fill="#202A34">Preparar ACK</text><text x="160.0" y="91.0" text-anchor="middle" font-family="DejaVuSans" font-size="20" fill="#202A34">EventID = 0</text><text x="160.0" y="115.0" text-anchor="middle" font-family="DejaVuSans" font-size="20" fill="#202A34">sessão, depois ID</text><rect x="400" y="40" width="240" height="88" rx="8" fill="#E7EFF5" stroke="#24577A" stroke-width="2"/><text x="520.0" y="67.0" text-anchor="middle" font-family="DejaVuSans" font-size="20" fill="#202A34">ACK coincide com</text><text x="520.0" y="91.0" text-anchor="middle" font-family="DejaVuSans" font-size="20" fill="#202A34">sessão + ID da</text><text x="520.0" y="115.0" text-anchor="middle" font-family="DejaVuSans" font-size="20" fill="#202A34">cabeça?</text><rect x="760" y="40" width="240" height="88" rx="4" fill="#EDF1F4" stroke="#536679" stroke-width="2"/><text x="880.0" y="79.0" text-anchor="middle" font-family="DejaVuSans" font-size="20" fill="#202A34">Cabeça preservada</text><text x="880.0" y="103.0" text-anchor="middle" font-family="DejaVuSans" font-size="20" fill="#202A34">ACK não remove</text><path d="M 768,52 H 992" stroke="#CBD4DC" stroke-width="1"/><rect x="40" y="264" width="240" height="88" rx="8" fill="#ffffff" stroke="#536679" stroke-width="2"/><text x="160.0" y="291.0" text-anchor="middle" font-family="DejaVuSans" font-size="20" fill="#202A34">Remove só a cabeça</text><text x="160.0" y="315.0" text-anchor="middle" font-family="DejaVuSans" font-size="20" fill="#202A34">mesmo ACK não</text><text x="160.0" y="339.0" text-anchor="middle" font-family="DejaVuSans" font-size="20" fill="#202A34">repete</text><rect x="400" y="264" width="240" height="88" rx="4" fill="#F4F6F8" stroke="#CBD4DC" stroke-width="2"/><text x="520.0" y="291.0" text-anchor="middle" font-family="DejaVuSans" font-size="20" fill="#202A34">Variante / ACK = 0</text><text x="520.0" y="315.0" text-anchor="middle" font-family="DejaVuSans" font-size="20" fill="#202A34">LoadRecipe: ID novo</text><text x="520.0" y="339.0" text-anchor="middle" font-family="DejaVuSans" font-size="20" fill="#202A34">fila até 32 fatos</text><rect x="760" y="264" width="240" height="88" rx="8" fill="#ffffff" stroke="#536679" stroke-width="2"/><text x="880.0" y="291.0" text-anchor="middle" font-family="DejaVuSans" font-size="20" fill="#202A34">Fila cheia: 32</text><text x="880.0" y="315.0" text-anchor="middle" font-family="DejaVuSans" font-size="20" fill="#202A34">novo fato perdido</text><text x="880.0" y="339.0" text-anchor="middle" font-family="DejaVuSans" font-size="20" fill="#202A34">perdas crescem</text><rect x="286.7578125" y="34.0" width="106.484375" height="40" fill="#ffffff"/><text x="340.0" y="49.0" text-anchor="middle" font-family="DejaVuSans" font-size="16" fill="#536679">EventID por</text><text x="340.0" y="69.0" text-anchor="middle" font-family="DejaVuSans" font-size="16" fill="#536679">último</text><rect x="676.24609375" y="54.0" width="47.5078125" height="20" fill="#ffffff"/><text x="700.0" y="69.0" text-anchor="middle" font-family="DejaVuSans" font-size="16" fill="#536679">NÃO</text><rect x="315.66015625" y="162" width="40.6796875" height="20" fill="#ffffff"/><text x="336" y="177" text-anchor="middle" font-family="DejaVuSans" font-size="16" fill="#536679">SIM</text><rect x="648.1171875" y="258.0" width="103.765625" height="40" fill="#ffffff"/><text x="700.0" y="273.0" text-anchor="middle" font-family="DejaVuSans" font-size="16" fill="#536679">capacidade</text><text x="700.0" y="293.0" text-anchor="middle" font-family="DejaVuSans" font-size="16" fill="#536679">esgotada</text><rect x="892.0" y="158.0" width="110.890625" height="40" fill="#ffffff"/><text x="896.0" y="173.0" text-anchor="start" font-family="DejaVuSans" font-size="16" fill="#536679">antigos</text><text x="896.0" y="193.0" text-anchor="start" font-family="DejaVuSans" font-size="16" fill="#536679">preservados</text></svg>