<svg xmlns="http://www.w3.org/2000/svg" width="1040" height="480" viewBox="0 0 1040 480" role="img" aria-labelledby="seq-071-title seq-071-desc"><title id="seq-071-title">SEQ-071</title><desc id="seq-071-desc">O array é limpo em toda chamada; a ausência de fatos não mantém eventos do ciclo anterior.</desc><defs><marker id="arrow" markerWidth="8" markerHeight="6" refX="7" refY="3" orient="auto"><polygon points="0,0 8,3 0,6" fill="#536679"/></marker><marker id="arrow-accent" markerWidth="8" markerHeight="6" refX="7" refY="3" orient="auto"><polygon points="0,0 8,3 0,6" fill="#24577A"/></marker><marker id="arrow-link" markerWidth="8" markerHeight="6" refX="7" refY="3" orient="auto"><polygon points="0,0 8,3 0,6" fill="#24577A"/></marker></defs><rect width="1040" height="480" fill="#ffffff"/><path d="M 284,112.0 L 296.0,112.0 Q 304,112.0 304.0,104.0 L 304.0,48.0 Q 304,40 312.0,40.0 L 360.0,40.0 Q 368,40 368.0,48.0 L 368.0,86.0 Q 368,94.0 376.0,94.0 L 388,94.0" fill="none" stroke="#536679" stroke-width="2"/><polygon points="388,94.0 378.0,89.0 378.0,99.0" fill="#536679"/><path d="M 514.0,160 L 514.0,289.0 Q 514.0,292 517.0,292.0 L 517.0,292.0 Q 520.0,292 520.0,295.0 L 520.0,328" fill="none" stroke="#536679" stroke-width="2"/><polygon points="520.0,328 525.0,318.0 515.0,318.0" fill="#536679"/><path d="M 888.0,160 L 888.0,172.0 Q 888.0,180 880.0,180.0 L 684.0,180.0 Q 676,180 676.0,172.0 L 676.0,126.0 Q 676,118.0 668.0,118.0 L 652,118.0" fill="none" stroke="#536679" stroke-width="2"/><polygon points="652,118.0 662.0,123.0 662.0,113.0" fill="#536679"/><path d="M 652,130.0 L 664.0,130.0 Q 672,130.0 672.0,138.0 L 672.0,368.0 Q 672,376.0 680.0,376.0 L 756,376.0" fill="none" stroke="#536679" stroke-width="2"/><polygon points="756,376.0 746.0,371.0 746.0,381.0" fill="#536679"/><rect x="20" y="64" width="264" height="96" rx="4" fill="#F4F6F8" stroke="#CBD4DC" stroke-width="2"/><text x="152.0" y="119.0" text-anchor="middle" font-family="DejaVuSans" font-size="20" fill="#202A34">Snapshots mudam</text><rect x="388" y="64" width="264" height="96" rx="4" fill="#ffffff" stroke="#536679" stroke-width="2"/><text x="520.0" y="119.0" text-anchor="middle" font-family="DejaVuSans" font-size="20" fill="#202A34">Builder recompõe</text><rect x="388" y="328" width="264" height="96" rx="8" fill="#ffffff" stroke="#536679" stroke-width="2"/><text x="520.0" y="371.0" text-anchor="middle" font-family="DejaVuSans" font-size="20" fill="#202A34">StateChanged</text><text x="520.0" y="395.0" text-anchor="middle" font-family="DejaVuSans" font-size="20" fill="#202A34">na chamada atual</text><rect x="756" y="64" width="264" height="96" rx="8" fill="#ffffff" stroke="#536679" stroke-width="2"/><text x="888.0" y="107.0" text-anchor="middle" font-family="DejaVuSans" font-size="20" fill="#202A34">Snapshots iguais</text><text x="888.0" y="131.0" text-anchor="middle" font-family="DejaVuSans" font-size="20" fill="#202A34">sem indicadores</text><rect x="756" y="328" width="264" height="96" rx="8" fill="#EDF1F4" stroke="#536679" stroke-width="2"/><text x="888.0" y="371.0" text-anchor="middle" font-family="DejaVuSans" font-size="20" fill="#202A34">Count 0</text><text x="888.0" y="395.0" text-anchor="middle" font-family="DejaVuSans" font-size="20" fill="#202A34">16 posições vazias</text><rect x="272.0703125" y="10.0" width="127.859375" height="20" fill="#ffffff"/><text x="336.0" y="25.0" text-anchor="middle" font-family="DejaVuSans" font-size="16" fill="#536679">uma diferença</text><rect x="407.4209375" y="216.0" width="94.578125" height="20" fill="#ffffff"/><text x="454.71" y="231.0" text-anchor="middle" font-family="DejaVuSans" font-size="16" fill="#536679">emite fato</text><rect x="701.8203125" y="192.0" width="160.359375" height="20" fill="#ffffff"/><text x="782.0" y="207.0" text-anchor="middle" font-family="DejaVuSans" font-size="16" fill="#536679">chamada seguinte</text><rect x="569.31625" y="243.0" width="90.6875" height="20" fill="#ffffff"/><text x="614.66" y="258.0" text-anchor="middle" font-family="DejaVuSans" font-size="16" fill="#536679">sem fatos</text></svg>