<svg xmlns="http://www.w3.org/2000/svg" width="1040" height="480" viewBox="0 0 1040 480" role="img" aria-labelledby="seq-061-title seq-061-desc"><title id="seq-061-title">SEQ-061</title><desc id="seq-061-desc">Sessão rejeitada não consome a numeração da sessão válida.</desc><defs><marker id="arrow" markerWidth="8" markerHeight="6" refX="7" refY="3" orient="auto"><polygon points="0,0 8,3 0,6" fill="#536679"/></marker><marker id="arrow-accent" markerWidth="8" markerHeight="6" refX="7" refY="3" orient="auto"><polygon points="0,0 8,3 0,6" fill="#24577A"/></marker><marker id="arrow-link" markerWidth="8" markerHeight="6" refX="7" refY="3" orient="auto"><polygon points="0,0 8,3 0,6" fill="#24577A"/></marker></defs><rect width="1040" height="480" fill="#ffffff"/><path d="M 284,112.0 L 302.0,112.0 Q 308,112.0 308.0,106.0 L 308.0,106.0 Q 308,100.0 314.0,100.0 L 388,100.0" fill="none" stroke="#536679" stroke-width="2"/><polygon points="388,100.0 378.0,95.0 378.0,105.0" fill="#536679"/><path d="M 652,112.0 L 756,112.0" fill="none" stroke="#536679" stroke-width="2"/><polygon points="756,112.0 746.0,107.0 746.0,117.0" fill="#536679"/><path d="M 532.0,160 L 532.0,166.0 Q 532.0,172 526.0,172.0 L 522.0,172.0 Q 514.0,172 514.0,180.0 L 514.0,328" fill="none" stroke="#536679" stroke-width="2" stroke-dasharray="6,5"/><polygon points="514.0,328 519.0,318.0 509.0,318.0" fill="#536679"/><path d="M 388,382.0 L 311.0,382.0 Q 308,382.0 308.0,379.0 L 308.0,379.0 Q 308,376.0 305.0,376.0 L 284,376.0" fill="none" stroke="#24577A" stroke-width="2" stroke-dasharray="6,5"/><polygon points="284,376.0 294.0,381.0 294.0,371.0" fill="#24577A"/><rect x="20" y="64" width="264" height="96" rx="4" fill="#F4F6F8" stroke="#CBD4DC" stroke-width="2"/><text x="152.0" y="119.0" text-anchor="middle" font-family="DejaVuSans" font-size="20" fill="#202A34">Sessão recebida</text><rect x="388" y="64" width="264" height="96" rx="4" fill="#ffffff" stroke="#536679" stroke-width="2"/><text x="520.0" y="119.0" text-anchor="middle" font-family="DejaVuSans" font-size="20" fill="#202A34">Confere sessão</text><rect x="756" y="64" width="264" height="96" rx="8" fill="#ffffff" stroke="#536679" stroke-width="2"/><text x="888.0" y="107.0" text-anchor="middle" font-family="DejaVuSans" font-size="20" fill="#202A34">Sessão correta</text><text x="888.0" y="131.0" text-anchor="middle" font-family="DejaVuSans" font-size="20" fill="#202A34">verifica RequestID</text><rect x="388" y="328" width="264" height="96" rx="8" fill="#ffffff" stroke="#536679" stroke-width="2"/><text x="520.0" y="371.0" text-anchor="middle" font-family="DejaVuSans" font-size="20" fill="#202A34">Sessão incorreta</text><text x="520.0" y="395.0" text-anchor="middle" font-family="DejaVuSans" font-size="20" fill="#202A34">marca preservada</text><rect x="20" y="328" width="264" height="96" rx="8" fill="#EDF1F4" stroke="#536679" stroke-width="2"/><text x="152.0" y="371.0" text-anchor="middle" font-family="DejaVuSans" font-size="20" fill="#202A34">Próximo ID válido</text><text x="152.0" y="395.0" text-anchor="middle" font-family="DejaVuSans" font-size="20" fill="#202A34">pode entrar</text><rect x="290.7421875" y="70.0" width="82.515625" height="20" fill="#ffffff"/><text x="332.0" y="85.0" text-anchor="middle" font-family="DejaVuSans" font-size="16" fill="#536679">compara</text><rect x="664.79296875" y="82.0" width="78.4140625" height="20" fill="#ffffff"/><text x="704.0" y="97.0" text-anchor="middle" font-family="DejaVuSans" font-size="16" fill="#536679">coincide</text><rect x="429.50390625" y="240.0" width="72.4921875" height="20" fill="#ffffff"/><text x="465.75" y="255.0" text-anchor="middle" font-family="DejaVuSans" font-size="16" fill="#536679">diverge</text><rect x="289.05859375" y="332.0" width="85.8828125" height="40" fill="#ffffff"/><text x="332.0" y="347.0" text-anchor="middle" font-family="DejaVuSans" font-size="16" fill="#536679">retorno à</text><text x="332.0" y="367.0" text-anchor="middle" font-family="DejaVuSans" font-size="16" fill="#536679">sessão</text></svg>